<?xml version="1.0" standalone="no"?>
<!DOCTYPE svg PUBLIC "-//W3C//DTD SVG 20010904//EN"
 "http://www.w3.org/TR/2001/REC-SVG-20010904/DTD/svg10.dtd">
<svg version="1.0" xmlns="http://www.w3.org/2000/svg"
 width="300.000000pt" height="146.000000pt" viewBox="0 0 300.000000 146.000000"
 preserveAspectRatio="xMidYMid meet">
<metadata>
Created by potrace 1.10, written by Peter Selinger 2001-2011
</metadata>
<g transform="translate(0.000000,146.000000) scale(0.100000,-0.100000)"
fill="#000000" stroke="none">
<path d="M1219 1445 c-64 -7 -125 -16 -135 -19 -11 -3 -35 -8 -54 -11 -19 -2
-66 -14 -105 -25 -38 -11 -104 -30 -145 -41 -181 -48 -344 -117 -450 -189 -76
-52 -171 -154 -208 -223 -39 -73 -76 -230 -70 -296 27 -279 496 -514 1138
-570 271 -24 375 -23 675 4 163 15 345 54 536 116 368 119 564 316 529 531
-11 68 -36 158 -57 200 -87 177 -288 313 -593 403 -69 20 -138 41 -155 46
-113 38 -241 63 -370 74 -44 3 -89 9 -100 12 -20 5 -20 5 1 -17 16 -17 46 -25
145 -40 146 -21 196 -32 304 -65 44 -14 132 -40 195 -59 252 -77 438 -200 522
-346 43 -74 81 -212 76 -273 -21 -255 -418 -468 -1008 -541 -439 -54 -934 -10
-1297 115 -325 112 -503 267 -503 438 0 108 52 246 127 336 108 130 281 222
568 302 233 65 263 72 397 92 101 16 136 25 152 41 11 11 16 19 11 19 -6 -1
-62 -7 -126 -14z"/>
</g>
</svg>
